<mxfile host="Electron" modified="2023-05-01T16:29:35.259Z" agent="Mozilla/5.0 (Windows NT 10.0; Win64; x64) AppleWebKit/537.36 (KHTML, like Gecko) draw.io/21.2.1 Chrome/112.0.5615.87 Electron/24.1.2 Safari/537.36" etag="9IOlwUDPz78jMurkeku-" version="21.2.1" type="device">
  <diagram name="Page-1" id="k_AYFww6y703Avpyz-q0">
    <mxGraphModel dx="1219" dy="733" grid="1" gridSize="10" guides="1" tooltips="1" connect="1" arrows="1" fold="1" page="1" pageScale="1" pageWidth="1100" pageHeight="850" math="0" shadow="0">
      <root>
        <mxCell id="0" />
        <mxCell id="1" parent="0" />
        <mxCell id="w0Y6eVmw3u6P4TPt5pLk-1" value="Office" style="whiteSpace=wrap;html=1;align=center;" vertex="1" parent="1">
          <mxGeometry x="200" y="160" width="100" height="40" as="geometry" />
        </mxCell>
        <mxCell id="w0Y6eVmw3u6P4TPt5pLk-4" value="" style="endArrow=none;html=1;rounded=0;exitX=0;exitY=0;exitDx=0;exitDy=0;entryX=0.5;entryY=1;entryDx=0;entryDy=0;" edge="1" parent="1" source="w0Y6eVmw3u6P4TPt5pLk-1" target="w0Y6eVmw3u6P4TPt5pLk-10">
          <mxGeometry relative="1" as="geometry">
            <mxPoint x="490" y="420" as="sourcePoint" />
            <mxPoint x="150" y="90.00000000000011" as="targetPoint" />
          </mxGeometry>
        </mxCell>
        <mxCell id="w0Y6eVmw3u6P4TPt5pLk-6" value="" style="endArrow=none;html=1;rounded=0;exitX=0;exitY=0.5;exitDx=0;exitDy=0;entryX=1;entryY=1;entryDx=0;entryDy=0;" edge="1" parent="1" source="w0Y6eVmw3u6P4TPt5pLk-1" target="w0Y6eVmw3u6P4TPt5pLk-12">
          <mxGeometry relative="1" as="geometry">
            <mxPoint x="230" y="170" as="sourcePoint" />
            <mxPoint x="105.35533905932766" y="134.14213562373106" as="targetPoint" />
          </mxGeometry>
        </mxCell>
        <mxCell id="w0Y6eVmw3u6P4TPt5pLk-7" value="Employee" style="whiteSpace=wrap;html=1;align=center;" vertex="1" parent="1">
          <mxGeometry x="840" y="160" width="100" height="40" as="geometry" />
        </mxCell>
        <mxCell id="w0Y6eVmw3u6P4TPt5pLk-10" value="Office_Number" style="ellipse;whiteSpace=wrap;html=1;align=center;fontStyle=4;" vertex="1" parent="1">
          <mxGeometry x="80" y="40" width="100" height="40" as="geometry" />
        </mxCell>
        <mxCell id="w0Y6eVmw3u6P4TPt5pLk-11" value="ID" style="ellipse;whiteSpace=wrap;html=1;align=center;fontStyle=4;" vertex="1" parent="1">
          <mxGeometry x="910" y="40" width="100" height="40" as="geometry" />
        </mxCell>
        <mxCell id="w0Y6eVmw3u6P4TPt5pLk-12" value="Office_Location" style="ellipse;whiteSpace=wrap;html=1;align=center;fontStyle=4;" vertex="1" parent="1">
          <mxGeometry x="10" y="120" width="100" height="40" as="geometry" />
        </mxCell>
        <mxCell id="w0Y6eVmw3u6P4TPt5pLk-13" value="Name" style="ellipse;whiteSpace=wrap;html=1;align=center;" vertex="1" parent="1">
          <mxGeometry x="990" y="120" width="100" height="40" as="geometry" />
        </mxCell>
        <mxCell id="w0Y6eVmw3u6P4TPt5pLk-14" value="" style="endArrow=none;html=1;rounded=0;exitX=0.75;exitY=0;exitDx=0;exitDy=0;entryX=0.5;entryY=1;entryDx=0;entryDy=0;" edge="1" parent="1" source="w0Y6eVmw3u6P4TPt5pLk-7" target="w0Y6eVmw3u6P4TPt5pLk-11">
          <mxGeometry relative="1" as="geometry">
            <mxPoint x="210" y="170" as="sourcePoint" />
            <mxPoint x="140" y="100" as="targetPoint" />
          </mxGeometry>
        </mxCell>
        <mxCell id="w0Y6eVmw3u6P4TPt5pLk-15" value="" style="endArrow=none;html=1;rounded=0;exitX=1;exitY=0.5;exitDx=0;exitDy=0;entryX=0;entryY=1;entryDx=0;entryDy=0;" edge="1" parent="1" source="w0Y6eVmw3u6P4TPt5pLk-7" target="w0Y6eVmw3u6P4TPt5pLk-13">
          <mxGeometry relative="1" as="geometry">
            <mxPoint x="935" y="170" as="sourcePoint" />
            <mxPoint x="980" y="110" as="targetPoint" />
          </mxGeometry>
        </mxCell>
        <mxCell id="w0Y6eVmw3u6P4TPt5pLk-16" value="Has" style="shape=rhombus;perimeter=rhombusPerimeter;whiteSpace=wrap;html=1;align=center;" vertex="1" parent="1">
          <mxGeometry x="500" y="240" width="120" height="60" as="geometry" />
        </mxCell>
        <mxCell id="w0Y6eVmw3u6P4TPt5pLk-17" value="" style="endArrow=none;html=1;rounded=0;entryX=0;entryY=0.5;entryDx=0;entryDy=0;" edge="1" parent="1" target="w0Y6eVmw3u6P4TPt5pLk-16">
          <mxGeometry relative="1" as="geometry">
            <mxPoint x="300" y="200" as="sourcePoint" />
            <mxPoint x="460" y="200" as="targetPoint" />
          </mxGeometry>
        </mxCell>
        <mxCell id="w0Y6eVmw3u6P4TPt5pLk-18" value="1" style="resizable=0;html=1;whiteSpace=wrap;align=right;verticalAlign=bottom;" connectable="0" vertex="1" parent="w0Y6eVmw3u6P4TPt5pLk-17">
          <mxGeometry x="1" relative="1" as="geometry" />
        </mxCell>
        <mxCell id="w0Y6eVmw3u6P4TPt5pLk-19" value="" style="endArrow=none;html=1;rounded=0;entryX=1;entryY=0.5;entryDx=0;entryDy=0;exitX=0;exitY=1;exitDx=0;exitDy=0;" edge="1" parent="1" source="w0Y6eVmw3u6P4TPt5pLk-7" target="w0Y6eVmw3u6P4TPt5pLk-16">
          <mxGeometry relative="1" as="geometry">
            <mxPoint x="530" y="380" as="sourcePoint" />
            <mxPoint x="690" y="380" as="targetPoint" />
          </mxGeometry>
        </mxCell>
        <mxCell id="w0Y6eVmw3u6P4TPt5pLk-20" value="N" style="resizable=0;html=1;whiteSpace=wrap;align=right;verticalAlign=bottom;" connectable="0" vertex="1" parent="w0Y6eVmw3u6P4TPt5pLk-19">
          <mxGeometry x="1" relative="1" as="geometry">
            <mxPoint x="1" y="-10" as="offset" />
          </mxGeometry>
        </mxCell>
        <mxCell id="w0Y6eVmw3u6P4TPt5pLk-21" value="Manage" style="shape=rhombus;perimeter=rhombusPerimeter;whiteSpace=wrap;html=1;align=center;" vertex="1" parent="1">
          <mxGeometry x="500" y="100" width="120" height="60" as="geometry" />
        </mxCell>
        <mxCell id="w0Y6eVmw3u6P4TPt5pLk-26" value="" style="endArrow=none;html=1;rounded=0;entryX=1;entryY=0.5;entryDx=0;entryDy=0;exitX=0;exitY=0.5;exitDx=0;exitDy=0;" edge="1" parent="1" source="w0Y6eVmw3u6P4TPt5pLk-7" target="w0Y6eVmw3u6P4TPt5pLk-21">
          <mxGeometry relative="1" as="geometry">
            <mxPoint x="430" y="210" as="sourcePoint" />
            <mxPoint x="630" y="200" as="targetPoint" />
          </mxGeometry>
        </mxCell>
        <mxCell id="w0Y6eVmw3u6P4TPt5pLk-27" value="1" style="resizable=0;html=1;whiteSpace=wrap;align=right;verticalAlign=bottom;" connectable="0" vertex="1" parent="w0Y6eVmw3u6P4TPt5pLk-26">
          <mxGeometry x="1" relative="1" as="geometry" />
        </mxCell>
        <mxCell id="w0Y6eVmw3u6P4TPt5pLk-28" value="Sale" style="shape=rhombus;perimeter=rhombusPerimeter;whiteSpace=wrap;html=1;align=center;" vertex="1" parent="1">
          <mxGeometry x="180" y="340" width="120" height="60" as="geometry" />
        </mxCell>
        <mxCell id="w0Y6eVmw3u6P4TPt5pLk-29" value="Property" style="whiteSpace=wrap;html=1;align=center;" vertex="1" parent="1">
          <mxGeometry x="200" y="520" width="100" height="40" as="geometry" />
        </mxCell>
        <mxCell id="w0Y6eVmw3u6P4TPt5pLk-30" value="" style="endArrow=none;html=1;rounded=0;entryX=0.5;entryY=0;entryDx=0;entryDy=0;exitX=0.5;exitY=1;exitDx=0;exitDy=0;" edge="1" parent="1" source="w0Y6eVmw3u6P4TPt5pLk-1" target="w0Y6eVmw3u6P4TPt5pLk-28">
          <mxGeometry relative="1" as="geometry">
            <mxPoint x="310" y="210" as="sourcePoint" />
            <mxPoint x="510" y="280" as="targetPoint" />
          </mxGeometry>
        </mxCell>
        <mxCell id="w0Y6eVmw3u6P4TPt5pLk-31" value="1" style="resizable=0;html=1;whiteSpace=wrap;align=right;verticalAlign=bottom;" connectable="0" vertex="1" parent="w0Y6eVmw3u6P4TPt5pLk-30">
          <mxGeometry x="1" relative="1" as="geometry" />
        </mxCell>
        <mxCell id="w0Y6eVmw3u6P4TPt5pLk-32" value="" style="shape=link;html=1;rounded=0;exitX=0.5;exitY=1;exitDx=0;exitDy=0;entryX=0.408;entryY=-0.022;entryDx=0;entryDy=0;entryPerimeter=0;" edge="1" parent="1" source="w0Y6eVmw3u6P4TPt5pLk-28" target="w0Y6eVmw3u6P4TPt5pLk-29">
          <mxGeometry relative="1" as="geometry">
            <mxPoint x="530" y="380" as="sourcePoint" />
            <mxPoint x="690" y="380" as="targetPoint" />
          </mxGeometry>
        </mxCell>
        <mxCell id="w0Y6eVmw3u6P4TPt5pLk-33" value="N" style="resizable=0;html=1;whiteSpace=wrap;align=right;verticalAlign=bottom;" connectable="0" vertex="1" parent="w0Y6eVmw3u6P4TPt5pLk-32">
          <mxGeometry x="1" relative="1" as="geometry">
            <mxPoint x="19" y="-129" as="offset" />
          </mxGeometry>
        </mxCell>
        <mxCell id="w0Y6eVmw3u6P4TPt5pLk-34" value="ID" style="ellipse;whiteSpace=wrap;html=1;align=center;fontStyle=4;" vertex="1" parent="1">
          <mxGeometry x="20" y="425" width="100" height="40" as="geometry" />
        </mxCell>
        <mxCell id="w0Y6eVmw3u6P4TPt5pLk-37" value="" style="endArrow=none;html=1;rounded=0;exitX=1;exitY=1;exitDx=0;exitDy=0;entryX=0;entryY=0;entryDx=0;entryDy=0;" edge="1" parent="1" source="w0Y6eVmw3u6P4TPt5pLk-34" target="w0Y6eVmw3u6P4TPt5pLk-29">
          <mxGeometry relative="1" as="geometry">
            <mxPoint x="530" y="380" as="sourcePoint" />
            <mxPoint x="690" y="380" as="targetPoint" />
          </mxGeometry>
        </mxCell>
        <mxCell id="w0Y6eVmw3u6P4TPt5pLk-39" value="Location" style="ellipse;whiteSpace=wrap;html=1;align=center;" vertex="1" parent="1">
          <mxGeometry x="150" y="590" width="100" height="40" as="geometry" />
        </mxCell>
        <mxCell id="w0Y6eVmw3u6P4TPt5pLk-40" value="" style="endArrow=none;html=1;rounded=0;exitX=0.5;exitY=0;exitDx=0;exitDy=0;entryX=0.5;entryY=1;entryDx=0;entryDy=0;" edge="1" parent="1" source="w0Y6eVmw3u6P4TPt5pLk-39" target="w0Y6eVmw3u6P4TPt5pLk-29">
          <mxGeometry relative="1" as="geometry">
            <mxPoint x="115" y="469" as="sourcePoint" />
            <mxPoint x="200" y="530" as="targetPoint" />
          </mxGeometry>
        </mxCell>
        <mxCell id="w0Y6eVmw3u6P4TPt5pLk-41" value="Address" style="ellipse;whiteSpace=wrap;html=1;align=center;" vertex="1" parent="1">
          <mxGeometry x="10" y="640" width="100" height="40" as="geometry" />
        </mxCell>
        <mxCell id="w0Y6eVmw3u6P4TPt5pLk-42" value="City" style="ellipse;whiteSpace=wrap;html=1;align=center;" vertex="1" parent="1">
          <mxGeometry x="80" y="690" width="100" height="40" as="geometry" />
        </mxCell>
        <mxCell id="w0Y6eVmw3u6P4TPt5pLk-43" value="State" style="ellipse;whiteSpace=wrap;html=1;align=center;" vertex="1" parent="1">
          <mxGeometry x="200" y="690" width="100" height="40" as="geometry" />
        </mxCell>
        <mxCell id="w0Y6eVmw3u6P4TPt5pLk-44" value="Zip-Code" style="ellipse;whiteSpace=wrap;html=1;align=center;" vertex="1" parent="1">
          <mxGeometry x="310" y="640" width="100" height="40" as="geometry" />
        </mxCell>
        <mxCell id="w0Y6eVmw3u6P4TPt5pLk-45" value="" style="endArrow=none;html=1;rounded=0;entryX=0;entryY=1;entryDx=0;entryDy=0;exitX=1;exitY=0;exitDx=0;exitDy=0;" edge="1" parent="1" source="w0Y6eVmw3u6P4TPt5pLk-41" target="w0Y6eVmw3u6P4TPt5pLk-39">
          <mxGeometry relative="1" as="geometry">
            <mxPoint x="530" y="620" as="sourcePoint" />
            <mxPoint x="690" y="620" as="targetPoint" />
          </mxGeometry>
        </mxCell>
        <mxCell id="w0Y6eVmw3u6P4TPt5pLk-46" value="" style="endArrow=none;html=1;rounded=0;entryX=0.418;entryY=1.025;entryDx=0;entryDy=0;exitX=0.5;exitY=0;exitDx=0;exitDy=0;entryPerimeter=0;" edge="1" parent="1" source="w0Y6eVmw3u6P4TPt5pLk-42" target="w0Y6eVmw3u6P4TPt5pLk-39">
          <mxGeometry relative="1" as="geometry">
            <mxPoint x="105" y="656" as="sourcePoint" />
            <mxPoint x="175" y="634" as="targetPoint" />
          </mxGeometry>
        </mxCell>
        <mxCell id="w0Y6eVmw3u6P4TPt5pLk-47" value="" style="endArrow=none;html=1;rounded=0;exitX=0.5;exitY=0;exitDx=0;exitDy=0;" edge="1" parent="1" source="w0Y6eVmw3u6P4TPt5pLk-43" target="w0Y6eVmw3u6P4TPt5pLk-39">
          <mxGeometry relative="1" as="geometry">
            <mxPoint x="140" y="700" as="sourcePoint" />
            <mxPoint x="202" y="641" as="targetPoint" />
          </mxGeometry>
        </mxCell>
        <mxCell id="w0Y6eVmw3u6P4TPt5pLk-48" value="" style="endArrow=none;html=1;rounded=0;entryX=1;entryY=1;entryDx=0;entryDy=0;exitX=0;exitY=0.5;exitDx=0;exitDy=0;" edge="1" parent="1" source="w0Y6eVmw3u6P4TPt5pLk-44" target="w0Y6eVmw3u6P4TPt5pLk-39">
          <mxGeometry relative="1" as="geometry">
            <mxPoint x="150" y="710" as="sourcePoint" />
            <mxPoint x="212" y="651" as="targetPoint" />
          </mxGeometry>
        </mxCell>
        <mxCell id="w0Y6eVmw3u6P4TPt5pLk-49" value="Property_Owner" style="whiteSpace=wrap;html=1;align=center;" vertex="1" parent="1">
          <mxGeometry x="840" y="520" width="100" height="40" as="geometry" />
        </mxCell>
        <mxCell id="w0Y6eVmw3u6P4TPt5pLk-50" value="ID" style="ellipse;whiteSpace=wrap;html=1;align=center;fontStyle=4;" vertex="1" parent="1">
          <mxGeometry x="960" y="465" width="100" height="40" as="geometry" />
        </mxCell>
        <mxCell id="w0Y6eVmw3u6P4TPt5pLk-51" value="Name" style="ellipse;whiteSpace=wrap;html=1;align=center;" vertex="1" parent="1">
          <mxGeometry x="980" y="560" width="100" height="40" as="geometry" />
        </mxCell>
        <mxCell id="w0Y6eVmw3u6P4TPt5pLk-52" value="" style="endArrow=none;html=1;rounded=0;exitX=0.75;exitY=0;exitDx=0;exitDy=0;entryX=0;entryY=0.5;entryDx=0;entryDy=0;" edge="1" parent="1" source="w0Y6eVmw3u6P4TPt5pLk-49" target="w0Y6eVmw3u6P4TPt5pLk-50">
          <mxGeometry relative="1" as="geometry">
            <mxPoint x="935" y="170" as="sourcePoint" />
            <mxPoint x="970" y="90" as="targetPoint" />
          </mxGeometry>
        </mxCell>
        <mxCell id="w0Y6eVmw3u6P4TPt5pLk-53" value="" style="endArrow=none;html=1;rounded=0;exitX=1;exitY=1;exitDx=0;exitDy=0;entryX=0;entryY=0.5;entryDx=0;entryDy=0;" edge="1" parent="1" source="w0Y6eVmw3u6P4TPt5pLk-49" target="w0Y6eVmw3u6P4TPt5pLk-51">
          <mxGeometry relative="1" as="geometry">
            <mxPoint x="945" y="180" as="sourcePoint" />
            <mxPoint x="980" y="100" as="targetPoint" />
          </mxGeometry>
        </mxCell>
        <mxCell id="w0Y6eVmw3u6P4TPt5pLk-54" value="Has" style="shape=rhombus;perimeter=rhombusPerimeter;whiteSpace=wrap;html=1;align=center;" vertex="1" parent="1">
          <mxGeometry x="500" y="510" width="120" height="60" as="geometry" />
        </mxCell>
        <mxCell id="w0Y6eVmw3u6P4TPt5pLk-56" value="Percentage" style="ellipse;whiteSpace=wrap;html=1;align=center;dashed=1;" vertex="1" parent="1">
          <mxGeometry x="510" y="420" width="100" height="40" as="geometry" />
        </mxCell>
        <mxCell id="w0Y6eVmw3u6P4TPt5pLk-57" value="" style="endArrow=none;html=1;rounded=0;entryX=0.5;entryY=1;entryDx=0;entryDy=0;exitX=0.5;exitY=0;exitDx=0;exitDy=0;" edge="1" parent="1" source="w0Y6eVmw3u6P4TPt5pLk-54" target="w0Y6eVmw3u6P4TPt5pLk-56">
          <mxGeometry relative="1" as="geometry">
            <mxPoint x="530" y="380" as="sourcePoint" />
            <mxPoint x="690" y="380" as="targetPoint" />
          </mxGeometry>
        </mxCell>
        <mxCell id="w0Y6eVmw3u6P4TPt5pLk-58" value="" style="shape=link;html=1;rounded=0;exitX=1;exitY=0.5;exitDx=0;exitDy=0;entryX=0;entryY=0.5;entryDx=0;entryDy=0;" edge="1" parent="1" source="w0Y6eVmw3u6P4TPt5pLk-29" target="w0Y6eVmw3u6P4TPt5pLk-54">
          <mxGeometry relative="1" as="geometry">
            <mxPoint x="330" y="539.41" as="sourcePoint" />
            <mxPoint x="490" y="539.41" as="targetPoint" />
          </mxGeometry>
        </mxCell>
        <mxCell id="w0Y6eVmw3u6P4TPt5pLk-59" value="N" style="resizable=0;html=1;whiteSpace=wrap;align=right;verticalAlign=bottom;" connectable="0" vertex="1" parent="w0Y6eVmw3u6P4TPt5pLk-58">
          <mxGeometry x="1" relative="1" as="geometry" />
        </mxCell>
        <mxCell id="w0Y6eVmw3u6P4TPt5pLk-60" value="" style="endArrow=none;html=1;rounded=0;exitX=0;exitY=0.5;exitDx=0;exitDy=0;entryX=1;entryY=0.5;entryDx=0;entryDy=0;" edge="1" parent="1" source="w0Y6eVmw3u6P4TPt5pLk-49" target="w0Y6eVmw3u6P4TPt5pLk-54">
          <mxGeometry relative="1" as="geometry">
            <mxPoint x="530" y="380" as="sourcePoint" />
            <mxPoint x="690" y="380" as="targetPoint" />
          </mxGeometry>
        </mxCell>
        <mxCell id="w0Y6eVmw3u6P4TPt5pLk-61" value="1" style="resizable=0;html=1;whiteSpace=wrap;align=right;verticalAlign=bottom;" connectable="0" vertex="1" parent="w0Y6eVmw3u6P4TPt5pLk-60">
          <mxGeometry x="1" relative="1" as="geometry" />
        </mxCell>
        <mxCell id="w0Y6eVmw3u6P4TPt5pLk-64" value="" style="shape=link;html=1;rounded=0;entryX=0;entryY=0.5;entryDx=0;entryDy=0;exitX=1;exitY=0;exitDx=0;exitDy=0;" edge="1" parent="1" source="w0Y6eVmw3u6P4TPt5pLk-1" target="w0Y6eVmw3u6P4TPt5pLk-21">
          <mxGeometry relative="1" as="geometry">
            <mxPoint x="310" y="139.41" as="sourcePoint" />
            <mxPoint x="470" y="139.41" as="targetPoint" />
          </mxGeometry>
        </mxCell>
        <mxCell id="w0Y6eVmw3u6P4TPt5pLk-65" value="1" style="resizable=0;html=1;whiteSpace=wrap;align=right;verticalAlign=bottom;" connectable="0" vertex="1" parent="w0Y6eVmw3u6P4TPt5pLk-64">
          <mxGeometry x="1" relative="1" as="geometry" />
        </mxCell>
      </root>
    </mxGraphModel>
  </diagram>
</mxfile>
